# xmcd
#
# Track frame offsets:
#	150
#	23841
#	47973
#	64503
#	80749
#	100173
#	120300
#	136397
#	154608
#	173176
#
# Disc length: 2568 seconds
#
# Revision: 0
# Processed by: cddbd v1.5.1PL0 Copyright (c) Steve Scherf et al.
# Submitted via: dBpowerAMP V4.0
#
DISCID=7b0a060a
DTITLE=Six Feet Under - Graveyard Classics 2
DYEAR=2004
DGENRE=Death Metal
TTITLE0=Hells Bells
TTITLE1=Shoot To Thrill
TTITLE2=What You Do For Money Honey
TTITLE3=Givin' The Dog A Bone
TTITLE4=Let Me Put My Love Into You
TTITLE5=Back In Black
TTITLE6=You Shook Me All Night Long
TTITLE7=Have A Drink On Me
TTITLE8=Shake A Leg
TTITLE9=Rock'N'Roll Ain't Noise Pollution
EXTD=Six Feet Under covering entire AC/DC Back In Black album.
EXTT0=
EXTT1=
EXTT2=
EXTT3=
EXTT4=
EXTT5=
EXTT6=
EXTT7=
EXTT8=
EXTT9=
PLAYORDER=
